# xmcd
#
# Track frame offsets:
#	150
#	14164
#	27764
#	41320
#	54820
#	68931
#	82526
#	96320
#	109291
#	124559
#	135354
#	147533
#	161611
#	170920
#	183208
#	195120
#	204132
#	219585
#	231242
#	245018
#	257635
#	271228
#	283335
#	296743
#	308842
#	321586
#
# Disc length: 4471 seconds
#
# Revision: 3
# Processed by: cddbd v1.5.2PL0 Copyright (c) Steve Scherf et al.
# Submitted via: audiograbber 1.83.01
#
DISCID=7b11751a
DTITLE=Sarah Vaughan (+ track dates) - Complete Columbia Recordings CD3
DYEAR=2006
DGENRE=Jazz
TTITLE0=Street of Dreams (1952)
TTITLE1=Time to Go (1952)
TTITLE2=Corner to Corner (1952)
TTITLE3=If Someone Had Told Me (1952)
TTITLE4=Say You'll Wait for Me (1952)
TTITLE5=Sinner or Saint (1952)
TTITLE6=My Tormented Heart (1952)
TTITLE7=Mighty Lonesome Feeling (1952)
TTITLE8=It's All in the Mind (1952)
TTITLE9=I Confess (1952)
TTITLE10=Lover's Quarrel (1952)
TTITLE11=Time (1952)
TTITLE12=Linger Awhile (1953)
TTITLE13=Spring Will be a Little Late This Year (1953)
TTITLE14=A Blues Serenade (1953)
TTITLE15=Ooh Watcha Doin' to me (1953)
TTITLE16=Lover Man (1945)
TTITLE17=I'm Scared (1946)
TTITLE18=You Go to my Head (1946)
TTITLE19=I Could Make You Love Me (1946)
TTITLE20=It Might As Well Be Spring (1946)
TTITLE21=We're Through (1946)
TTITLE22=Ev'ry Day (1949)
TTITLE23=I Love You (1949)
TTITLE24=Dedicated to You (1949)
TTITLE25=You're All I Need (1949)
EXTD=Track dates supplied.
EXTT0=
EXTT1=
EXTT2=
EXTT3=
EXTT4=
EXTT5=
EXTT6=
EXTT7=
EXTT8=
EXTT9=
EXTT10=
EXTT11=
EXTT12=
EXTT13=
EXTT14=
EXTT15=
EXTT16=
EXTT17=
EXTT18=
EXTT19=
EXTT20=
EXTT21=
EXTT22=
EXTT23=
EXTT24=
EXTT25=
PLAYORDER=
